PathFileType  4	(X/Y/Z) C:\Users\antoi\Documents\MyRepositories\mobilecap\ResultsAnalysis
DataRate	CameraRate	NumFrames	NumMarkers	Units	OrigDataRate	OrigDataStartFrame	OrigNumFrames
100.0	100.0	4	51	mm	100.0	37	291
Frame#	Time	r_knee			r_shank_antsup			r_ankle			r_calc			r_5meta			r_toe			L_knee			L_shank_antsup			L_ankle			L_calc			L_5meta			L_toe			r_sh2			r_sh3			r_sh4			L_sh2			L_sh3			r_thigh1			r_thigh2			r_thigh3			r_thigh4			r_thigh5			L_thigh1			L_thigh2			L_thigh3			L_thigh4			r.ASIS			r.PSIS			L.ASIS			L.PSIS			C7			R_Shoulder			L_Shoulder			R_Sternum			L_Sternum			R_humerus			R_elbow_med			R_elbow_lat			R_forearm			R_wrist_radius			R_wrist_ulna			L_humerus			L_elbow_med			L_elbow_lat			L_forearm			L_wrist_radius			L_wrist_ulna			R_HJC			L_HJC			R_HJC_reg			L_HJC_reg			
		X1	Y1	Z1	X2	Y2	Z2	X3	Y3	Z3	X4	Y4	Z4	X5	Y5	Z5	X6	Y6	Z6	X7	Y7	Z7	X8	Y8	Z8	X9	Y9	Z9	X10	Y10	Z10	X11	Y11	Z11	X12	Y12	Z12	X13	Y13	Z13	X14	Y14	Z14	X15	Y15	Z15	X16	Y16	Z16	X17	Y17	Z17	X18	Y18	Z18	X19	Y19	Z19	X20	Y20	Z20	X21	Y21	Z21	X22	Y22	Z22	X23	Y23	Z23	X24	Y24	Z24	X25	Y25	Z25	X26	Y26	Z26	X27	Y27	Z27	X28	Y28	Z28	X29	Y29	Z29	X30	Y30	Z30	X31	Y31	Z31	X32	Y32	Z32	X33	Y33	Z33	X34	Y34	Z34	X35	Y35	Z35	X36	Y36	Z36	X37	Y37	Z37	X38	Y38	Z38	X39	Y39	Z39	X40	Y40	Z40	X41	Y41	Z41	X42	Y42	Z42	X43	Y43	Z43	X44	Y44	Z44	X45	Y45	Z45	X46	Y46	Z46	X47	Y47	Z47	X48	Y48	Z48	X49	Y49	Z49	X50	Y50	Z50	X51	Y51	Z51	

37	0.36000000	-1090.14917	770.11609	-426.07613	-1059.67960	702.30853	-426.45199	-1188.93639	392.87614	-437.07517	-1245.56692	363.37688	-480.16550	-1083.89647	350.20440	-409.92321	-1043.95311	367.41878	-464.00579	-1076.77289	763.60239	-704.15317	-1053.19821	671.78713	-692.68442	-1190.98484	400.41405	-692.65291	-1248.97442	361.45049	-647.50184	-1094.06973	352.45358	-727.04378	-1041.32424	367.39790	-675.92109	-1098.81023	596.05687	-417.38235	-1124.86844	731.05261	-397.51254	-1172.81587	622.05357	-393.31373	-1123.74470	709.70320	-738.78784	-1163.62512	591.23205	-739.51756	-1069.92881	1021.64963	-380.76821	-1054.45731	909.89327	-397.07012	-1113.50221	879.31822	-396.64347	-1181.43742	1005.84641	-393.78980	-1162.59908	893.29071	-417.25175	-1062.15611	1042.03096	-757.40740	-1041.32111	906.18482	-732.22510	-1172.99449	1024.62383	-761.22179	-1155.44279	892.61517	-717.53689	-1029.57138	1202.37673	-459.72961	-1218.53773	1294.33575	-536.13746	-1025.37558	1203.70419	-675.41410	-1215.82856	1292.39289	-618.66869	-956.43633	1672.73787	-561.31999	-918.84656	1623.38312	-418.14641	-916.36901	1628.56308	-702.84644	-867.62080	1571.38578	-538.80649	-867.39124	1569.89262	-577.70378	-974.65330	1534.12558	-343.75797	-1188.30874	1460.72225	-340.20362	-1155.69403	1446.73412	-283.70558	-1151.06684	1351.12302	-269.44098	-1197.26582	1214.34960	-271.56926	-1225.58519	1227.54302	-250.16220	-972.03407	1562.40949	-787.85012	-1173.34770	1461.00759	-816.89530	-1130.73662	1459.48908	-869.21410	-1138.39408	1351.07808	-889.93100	-1178.96699	1229.52582	-890.15899	-1206.52315	1242.28822	-916.18558	-1134.68989	1144.38887	-466.60493	-1128.03303	1146.38010	-673.99597	-1117.49814	1163.49408	-491.04101	-1112.82857	1160.14373	-633.30612	
38	0.37000000	-1085.94947	769.03928	-425.62915	-1055.48354	700.78636	-425.92580	-1188.76086	392.98763	-437.05527	-1245.53375	363.53386	-480.24673	-1083.84986	350.18700	-409.82863	-1043.84920	367.34509	-463.97464	-1072.29452	762.55658	-704.91505	-1049.41400	670.12984	-693.05900	-1190.69369	400.52226	-692.60812	-1248.99908	361.65560	-647.36899	-1093.97680	352.47655	-727.11276	-1041.18514	367.38409	-675.91104	-1096.01915	595.00225	-416.95659	-1120.23231	730.40851	-397.09154	-1169.57376	621.83179	-393.02607	-1119.68558	708.29117	-738.26268	-1160.60546	590.81147	-740.03274	-1069.36254	1020.67782	-379.68735	-1052.40101	908.96734	-396.34228	-1110.96639	877.65324	-396.69247	-1180.69486	1003.32146	-394.68550	-1160.06004	891.09470	-417.56105	-1061.46055	1040.93344	-757.62106	-1038.91084	905.30334	-732.41449	-1172.09127	1022.53632	-761.55335	-1152.73985	890.41701	-718.04806	-1029.69972	1199.69934	-459.91273	-1217.46259	1293.96604	-536.28160	-1025.69774	1200.59091	-675.25976	-1214.80077	1291.89503	-618.53082	-950.40371	1668.62956	-561.67350	-913.07396	1619.15567	-418.32741	-910.43756	1624.09613	-703.07325	-861.90895	1565.66236	-537.68070	-862.29436	1564.95922	-578.09666	-971.81732	1532.12630	-343.86935	-1187.00572	1463.73001	-342.87544	-1155.96983	1449.50072	-285.75704	-1153.29856	1353.88859	-270.70455	-1202.14345	1218.01113	-273.39199	-1230.52891	1231.71755	-252.32451	-968.29959	1560.13397	-787.82945	-1172.43381	1463.96596	-814.59947	-1130.95645	1461.65571	-867.51138	-1141.37069	1353.54912	-888.55492	-1184.68039	1232.90490	-888.31441	-1212.49846	1246.47456	-914.00192	-1135.56288	1143.07680	-466.42811	-1129.05893	1144.63303	-673.82741	-1118.14151	1161.92906	-491.10835	-1113.54510	1158.35178	-633.14357	
39	0.38000000	-1081.59164	767.92757	-425.11610	-1051.23664	699.12822	-425.56828	-1188.59298	393.04000	-437.08381	-1245.52249	363.74813	-480.43229	-1083.80001	350.14647	-409.79753	-1043.74499	367.25992	-463.95553	-1067.43440	761.23190	-705.65395	-1045.34675	668.31818	-693.68293	-1190.34657	400.69416	-692.63854	-1248.90370	361.98730	-647.33351	-1093.89932	352.48912	-727.15215	-1041.02477	367.32157	-675.96492	-1093.20562	593.89733	-416.55943	-1115.62018	729.58425	-396.80190	-1166.27213	621.92668	-392.59556	-1115.47424	706.53538	-737.43145	-1157.37909	590.35794	-740.73170	-1068.69409	1019.45307	-378.85868	-1050.04847	907.97752	-395.52059	-1108.36514	875.86575	-396.69264	-1179.74828	1000.76950	-395.20526	-1157.30921	888.82320	-417.55363	-1060.79120	1039.69252	-757.71294	-1036.14253	904.45887	-732.92897	-1171.18725	1020.09575	-761.76613	-1149.76141	888.03267	-718.43909	-1029.88936	1196.73420	-460.18016	-1216.40025	1293.31546	-536.26450	-1026.48764	1197.35432	-675.14205	-1213.84556	1291.11599	-618.47336	-944.49874	1664.19101	-562.05198	-907.37756	1614.46422	-418.50445	-904.56795	1619.31749	-703.35933	-856.56262	1560.02322	-536.95676	-857.33584	1559.77868	-578.36673	-968.77804	1529.86834	-343.81485	-1185.22731	1465.76766	-345.69649	-1155.74223	1451.49358	-288.01267	-1154.81436	1355.95379	-272.30764	-1205.87824	1220.89581	-275.34494	-1234.20687	1235.03487	-254.47895	-964.56180	1557.58203	-787.91202	-1170.91173	1465.99797	-812.41119	-1130.51247	1463.08571	-865.92651	-1143.44912	1355.25508	-887.07451	-1189.10492	1235.41234	-886.13636	-1217.25027	1249.69117	-911.47279	-1136.50007	1141.51190	-466.27243	-1130.35598	1142.68627	-673.68547	-1118.93047	1160.16910	-491.18213	-1114.52421	1156.37650	-632.95641	
40	0.39000000	-1077.04560	766.67450	-424.62164	-1046.87053	697.28802	-425.33690	-1188.33388	393.11387	-437.08232	-1245.45068	363.96834	-480.54110	-1083.69771	350.13934	-409.75763	-1043.64250	367.15824	-463.96876	-1062.26277	759.62140	-706.28150	-1041.06696	666.38378	-694.41914	-1189.95397	400.91832	-692.77589	-1248.70080	362.40414	-647.34298	-1093.83604	352.48790	-727.14879	-1040.83861	367.20484	-676.03693	-1090.16446	592.66870	-416.34869	-1111.50479	728.06939	-396.50897	-1162.98018	621.98287	-392.10093	-1110.92492	704.86504	-737.15622	-1154.10244	589.97148	-741.62617	-1067.79549	1017.97244	-378.31947	-1047.60911	906.92318	-394.66594	-1105.61510	874.03559	-396.40123	-1178.44856	998.09995	-395.43226	-1154.40107	886.34992	-417.44906	-1060.13430	1038.36206	-757.86865	-1033.16040	903.66751	-733.53549	-1170.23098	1017.21825	-761.61717	-1146.55651	885.29987	-718.37710	-1030.03542	1193.60745	-460.38507	-1215.36172	1292.27821	-536.21303	-1027.43168	1194.37299	-675.14122	-1212.98518	1290.04191	-618.58403	-938.71342	1659.42178	-562.33643	-901.90818	1609.42698	-418.77347	-898.81073	1614.21960	-703.61792	-851.73810	1554.63213	-536.99798	-852.52001	1554.32438	-578.60432	-965.57000	1527.19179	-343.83503	-1183.01766	1466.74758	-348.62415	-1154.93704	1452.64767	-290.31570	-1155.58692	1357.18468	-274.08870	-1208.54701	1222.63402	-277.47695	-1236.77610	1237.36167	-256.68737	-960.71375	1554.61931	-788.15505	-1168.80345	1466.88940	-810.13414	-1129.58338	1463.56910	-864.13139	-1144.66194	1356.00343	-885.66976	-1192.31996	1236.89946	-883.96860	-1220.75688	1251.65956	-908.63673	-1137.32487	1139.65615	-466.29278	-1131.53307	1140.72119	-673.71683	-1119.63895	1158.19592	-491.17770	-1115.55235	1154.35119	-632.81700	
